<?xml version="1.0" encoding="UTF-8"?>
<svg xmlns="http://www.w3.org/2000/svg" width="512" height="512" viewBox="0 0 512 512">
  <defs>
    <linearGradient id="g" x1="0" y1="0" x2="1" y2="1">
      <stop offset="0" stop-color="#2563EB"/>
      <stop offset="1" stop-color="#7C3AED"/>
    </linearGradient>
  </defs>
  <rect x="32" y="32" width="448" height="448" rx="96" fill="url(#g)"/>
  <g fill="#ffffff" fill-opacity="0.95">
    <path d="M194 276c-10-18-28-28-46-28-30 0-54 24-54 54 0 56 70 106 162 106s162-50 162-106c0-30-24-54-54-54-18 0-36 10-46 28-18-12-40-18-62-18s-44 6-62 18zm62 100c-28 0-52-16-52-36 0-10 8-18 18-18h68c10 0 18 8 18 18 0 20-24 36-52 36z"/>
    <circle cx="176" cy="206" r="28"/>
    <circle cx="336" cy="206" r="28"/>
  </g>
</svg>
